<?xml version="1.0" standalone="no"?>
<!DOCTYPE svg PUBLIC "-//W3C//DTD SVG 20010904//EN"
 "http://www.w3.org/TR/2001/REC-SVG-20010904/DTD/svg10.dtd">
<svg version="1.0" xmlns="http://www.w3.org/2000/svg"
 width="456.000000pt" height="258.000000pt" viewBox="0 0 456.000000 258.000000"
 preserveAspectRatio="xMidYMid meet">
<metadata>
Created by potrace 1.16, written by Peter Selinger 2001-2019
</metadata>
<g transform="translate(0.000000,258.000000) scale(0.100000,-0.100000)"
 stroke="none">
<path d="M1230 2205 c-240 -44 -440 -252 -466 -485 -4 -36 0 -29 16 30 26 95
70 168 144 241 105 103 222 149 377 149 107 0 192 -24 275 -79 284 -186 335
-566 108 -810 -100 -109 -205 -158 -364 -171 l-95 -8 110 2 c88 2 125 8 184
29 233 82 381 291 381 536 0 170 -49 290 -166 407 -134 135 -317 193 -504 159z" fill="#292826"/>
<path d="M969 2151 c-205 -103 -339 -327 -339 -571 0 -140 63 -305 154 -406
l45 -51 -42 -41 c-24 -23 -52 -42 -63 -42 -11 0 -29 -7 -42 -15 -22 -16 -238
-263 -281 -321 -51 -70 19 -150 103 -118 17 6 276 307 294 341 7 12 12 32 12
45 0 15 15 39 39 62 l39 39 39 -24 c101 -63 183 -89 308 -96 74 -4 118 -1 170
11 149 35 303 135 377 244 l31 47 -49 -47 c-194 -184 -466 -227 -703 -111 -87
43 -209 156 -256 236 -43 74 -76 184 -82 272 -13 203 93 422 262 543 36 26 32
27 -16 3z" fill="#292826"/>
<path d="M928 1840 c-25 -26 -29 -36 -24 -63 8 -42 37 -80 70 -92 23 -8 31 -5
57 21 17 18 32 45 36 67 5 31 1 40 -25 67 -40 39 -74 39 -114 0z" fill="#31b1e5"/>
<path d="M1555 1859 c-49 -28 -59 -81 -25 -136 46 -76 140 -32 140 65 0 57
-67 98 -115 71z" fill="#31b1e5"/>
<path d="M1244 1800 c-36 -14 -64 -59 -64 -102 0 -45 12 -71 48 -110 63 -68
172 4 172 114 0 75 -83 128 -156 98z" fill="#31b1e5"/>
<path d="M2210 1710 c-19 -4 -45 -20 -57 -35 -22 -25 -23 -34 -23 -184 0 -166
4 -183 48 -196 22 -6 22 -5 22 89 0 53 1 96 3 96 2 0 27 -7 55 -15 41 -12 55
-23 68 -48 37 -72 74 -115 104 -122 16 -4 34 -4 39 -1 8 6 -19 60 -78 154
l-21 33 24 10 c52 24 71 100 37 155 -33 54 -138 85 -221 64z m152 -80 c24 -29
23 -65 -2 -90 -15 -15 -33 -20 -74 -20 -81 0 -86 4 -86 66 0 65 14 76 89 71
42 -3 59 -9 73 -27z" fill="#292826"/>
<path d="M2570 1713 c-36 -13 -40 -34 -40 -208 0 -181 4 -197 48 -210 22 -6
22 -5 22 94 l0 101 90 0 90 0 0 -78 c0 -83 9 -105 48 -117 l22 -6 0 216 0 216
-22 -6 c-37 -12 -42 -22 -46 -95 l-4 -70 -89 0 -89 0 0 85 c0 47 -3 85 -7 84
-5 0 -15 -3 -23 -6z" fill="#292826"/>
<path d="M3559 1651 c-21 -17 -24 -30 -27 -101 -6 -117 5 -185 34 -219 31 -38
76 -48 109 -27 33 22 32 36 -2 36 -53 0 -73 33 -73 114 0 52 2 56 23 56 27 0
52 17 60 43 5 14 0 17 -38 17 l-45 0 0 50 c0 55 -6 59 -41 31z" fill="#292826"/>
<path d="M927 1649 c-80 -19 -127 -63 -127 -117 0 -56 169 -327 190 -306 5 5
1 37 -8 70 -13 52 -14 68 -3 103 17 57 70 114 131 140 53 23 61 38 33 63 -50
44 -146 64 -216 47z" fill="#31b1e5"/>
<path d="M1515 1644 c-44 -14 -105 -57 -105 -73 0 -3 24 -16 54 -29 124 -54
162 -144 121 -294 -12 -45 8 -33 63 40 113 149 149 260 101 311 -47 50 -152
70 -234 45z" fill="#31b1e5"/>
<path d="M2993 1564 c-31 -7 -70 -50 -77 -85 -10 -53 -7 -144 7 -161 6 -9 22
-19 35 -23 22 -6 22 -5 22 87 0 107 13 138 58 138 54 0 72 -33 72 -129 0 -61
3 -72 22 -85 42 -30 48 -22 47 67 0 96 -14 143 -50 170 -27 19 -94 30 -136 21z" fill="#292826"/>
<path d="M3311 1552 c-124 -63 -93 -241 45 -258 44 -6 109 22 109 46 0 15 -17
17 -67 4 -41 -9 -73 2 -86 31 -7 14 -12 27 -12 28 0 2 27 3 59 2 45 0 66 5 88
21 51 38 40 104 -22 130 -45 18 -73 18 -114 -4z" fill="#292826"/>
<path d="M1207 1504 c-74 -18 -108 -36 -141 -74 -39 -47 -36 -105 12 -200 35
-71 39 -76 87 -92 60 -20 174 -23 245 -6 51 12 52 13 86 81 75 148 48 239 -84
281 -72 22 -141 26 -205 10z" fill="#31b1e5"/>
</g>
</svg>
